<?xml version="1.0" encoding="utf-8"?>
<!-- Generator: Adobe Illustrator 23.0.3, SVG Export Plug-In . SVG Version: 6.00 Build 0)  -->
<svg version="1.1"
	 id="SVGRoot" xmlns:cc="http://creativecommons.org/ns#" xmlns:dc="http://purl.org/dc/elements/1.1/" xmlns:inkscape="http://www.inkscape.org/namespaces/inkscape" xmlns:rdf="http://www.w3.org/1999/02/22-rdf-syntax-ns#" xmlns:sodipodi="http://sodipodi.sourceforge.net/DTD/sodipodi-0.dtd" xmlns:svg="http://www.w3.org/2000/svg"
	 xmlns="http://www.w3.org/2000/svg" xmlns:xlink="http://www.w3.org/1999/xlink" x="0px" y="0px" viewBox="0 0 3758.9 1300"
	 style="enable-background:new 0 0 3758.9 1300;" xml:space="preserve">
<style type="text/css">
	.st0{fill:none;stroke:#FFFFFF;stroke-width:10.0992;stroke-linecap:round;stroke-linejoin:round;}
	
		.st1{opacity:0.18;fill:#FFFFFF;fill-opacity:0.9961;stroke:#FFFFFF;stroke-width:2.5;stroke-linecap:round;stroke-linejoin:round;stroke-dasharray:8.315,24.9449;enable-background:new    ;}
	.st2{fill:#FFFFFF;}
	.st3{fill:none;stroke:#FFFFFF;stroke-width:7.5591;stroke-linecap:round;stroke-linejoin:round;}
	.st4{fill-rule:evenodd;clip-rule:evenodd;fill:#FFFFFF;fill-opacity:0.9961;}
	.st5{fill-rule:evenodd;clip-rule:evenodd;fill:#2FA074;stroke:#2FA074;}
	.st6{fill:none;stroke:#FFFFFF;stroke-width:4;stroke-linecap:round;stroke-linejoin:round;}
	.st7{fill:none;stroke:#FFFFFF;stroke-width:2;stroke-linecap:round;stroke-linejoin:round;}
	.st8{font-family:'Roboto-Regular';}
	.st9{font-size:75.3255px;}
	.st10{font-family:'Roboto-Light';}
	.st11{font-size:69.5801px;}
</style>
<sodipodi:namedview  bordercolor="#666666" borderopacity="1.0" id="base" inkscape:current-layer="patternLayer" inkscape:cx="668.38332" inkscape:cy="948.83019" inkscape:document-units="px" inkscape:pagecheckerboard="true" inkscape:pageopacity="0.0" inkscape:pageshadow="2" inkscape:snap-global="false" inkscape:window-height="713" inkscape:window-maximized="1" inkscape:window-width="1327" inkscape:window-x="39" inkscape:window-y="27" inkscape:zoom="0.15288795" pagecolor="#ffffff" showgrid="false">
	</sodipodi:namedview>
<inkscape:_templateinfo  id="_templateinfo10">
	<inkscape:_name  id="_name12">Seamless Pattern</inkscape:_name>
	<inkscape:_shortdesc  id="_shortdesc14">Seamless Pattern</inkscape:_shortdesc>
	<inkscape:_keywords  id="_keywords16">Seamless Pattern</inkscape:_keywords>
</inkscape:_templateinfo>
<g id="patternLayer" inkscape:groupmode="layer" inkscape:label="Pattern">
	<rect x="-0.5" y="-0.5" width="3758.9" height="1300"/>
	
		<rect id="rect12964-5-0" x="1660" y="275.2" inkscape:export-xdpi="95.900002" inkscape:export-ydpi="95.900002" class="st0" width="745.8" height="556.8">
	</rect>
	
		<rect id="rect12966-9-3" x="2982.8" y="275.2" inkscape:export-xdpi="95.900002" inkscape:export-ydpi="95.900002" class="st0" width="745.8" height="556.8">
	</rect>
	
		<circle id="path12969-9-3" inkscape:export-xdpi="95.900002" inkscape:export-ydpi="95.900002" class="st1" cx="521" cy="553.7" r="488.4">
	</circle>
	
		<ellipse id="circle22370-1-3" inkscape:export-xdpi="95.900002" inkscape:export-ydpi="95.900002" class="st1" cx="1843.9" cy="553.7" rx="376.5" ry="376.5">
	</ellipse>
	
		<ellipse id="ellipse22372-4-7" inkscape:export-xdpi="95.900002" inkscape:export-ydpi="95.900002" class="st1" cx="2221.8" cy="553.7" rx="376.5" ry="376.5">
	</ellipse>
	
		<ellipse id="ellipse22390-9-3" inkscape:export-xdpi="95.900002" inkscape:export-ydpi="95.900002" class="st1" cx="3166.7" cy="553.7" rx="376.5" ry="376.5">
	</ellipse>
	
		<circle id="ellipse22394-1-2" inkscape:export-xdpi="95.900002" inkscape:export-ydpi="95.900002" class="st1" cx="3544.7" cy="742.6" r="188.2">
	</circle>
	
		<circle id="circle22398-0-6" inkscape:export-xdpi="95.900002" inkscape:export-ydpi="95.900002" class="st1" cx="3544.7" cy="364.7" r="188.2">
	</circle>
	
		<ellipse id="path12973-7-5" inkscape:export-xdpi="95.900002" inkscape:export-ydpi="95.900002" transform="matrix(0.1602 -0.9871 0.9871 0.1602 -697.0007 845.0121)" class="st2" cx="148.1" cy="832.1" rx="13" ry="13">
	</ellipse>
	
		<circle id="path12975-5-2" inkscape:export-xdpi="95.900002" inkscape:export-ydpi="95.900002" class="st3" cx="528.6" cy="546.1" r="3.8">
	</circle>
	<path id="path12142-33-4" inkscape:connector-curvature="0" class="st4" d="M528.6,568.8l7.6,7.6l-7.6-26.5l-7.6,26.5L528.6,568.8z
		"/>
	<path id="path13702-0-2" inkscape:connector-curvature="0" class="st4" d="M528.6,813.2l-7.6-7.6l7.6,26.5l7.6-26.5L528.6,813.2z"
		/>
	
		<path id="path12986-90-9" inkscape:connector-curvature="0" inkscape:export-xdpi="95.900002" inkscape:export-ydpi="95.900002" class="st5" d="
		M528.6,832.1"/>
	<path id="path12142-8-91-1" inkscape:connector-curvature="0" class="st4" d="M167,546l7.6-7.6l-26.5,7.6l26.5,7.6L167,546z"/>
	<path id="path13702-9-6-6" inkscape:connector-curvature="0" class="st4" d="M505.9,546.1l-7.6,7.6l26.5-7.6l-26.5-7.6L505.9,546.1
		z"/>
	
		<path id="path12986-7-2-3" inkscape:connector-curvature="0" inkscape:export-xdpi="95.900002" inkscape:export-ydpi="95.900002" sodipodi:nodetypes="cc" class="st5" d="
		M524.8,546.1"/>
	
		<path id="path15061-5-3-2" inkscape:connector-curvature="0" inkscape:export-xdpi="95.900002" inkscape:export-ydpi="95.900002" class="st6" d="
		M894,832.1v324.3"/>
	
		<path id="path15061-5-3-2_2_" inkscape:connector-curvature="0" inkscape:export-xdpi="95.900002" inkscape:export-ydpi="95.900002" class="st6" d="
		M894,275.2h324.3"/>
	
		<path id="path15061-5-3-2_15_" inkscape:connector-curvature="0" inkscape:export-xdpi="95.900002" inkscape:export-ydpi="95.900002" class="st6" d="
		M532.4,546.9l282.3-359.6"/>
	
		<path id="path15061-5-3-2_5_" inkscape:connector-curvature="0" inkscape:export-xdpi="95.900002" inkscape:export-ydpi="95.900002" class="st6" d="
		M894,832.1h324.3"/>
	
		<path id="path15061-5-3-2_12_" inkscape:connector-curvature="0" inkscape:export-xdpi="95.900002" inkscape:export-ydpi="95.900002" class="st7" d="
		M164.3,546.1h344"/>
	
		<path id="path15061-5-3-2_13_" inkscape:connector-curvature="0" inkscape:export-xdpi="95.900002" inkscape:export-ydpi="95.900002" class="st7" d="
		M528.8,818.8l-0.2-250.5"/>
	
		<path id="path15061-5-3-2_10_" inkscape:connector-curvature="0" inkscape:export-xdpi="95.900002" inkscape:export-ydpi="95.900002" class="st6" d="
		M1011.6,832.1h324.3"/>
	
		<path id="path15061-5-3-2_1_" inkscape:connector-curvature="0" inkscape:export-xdpi="95.900002" inkscape:export-ydpi="95.900002" class="st6" d="
		M148.1,832.1v324.3"/>
	
		<path id="path15061-5-3-2_8_" inkscape:connector-curvature="0" inkscape:export-xdpi="95.900002" inkscape:export-ydpi="95.900002" class="st6" d="
		M148.1,33.4v324.3"/>
	<path id="path12142-3-3-1" inkscape:connector-curvature="0" class="st4" d="M1196.7,297.9l7.6,7.6l-7.6-26.5l-7.6,26.5
		L1196.7,297.9z"/>
	<path id="path13702-8-0-4" inkscape:connector-curvature="0" class="st4" d="M1196.7,810.3l-7.6-7.6l7.6,26.5l7.6-26.5
		L1196.7,810.3z"/>
	
		<path id="path12986-9-0-0" inkscape:connector-curvature="0" inkscape:export-xdpi="95.900002" inkscape:export-ydpi="95.900002" sodipodi:nodetypes="cc" class="st5" d="
		M1196.7,829.2"/>
	<path id="path12142-8-4-3-9" inkscape:connector-curvature="0" class="st4" d="M169.9,1139.4l7.6-7.6l-26.5,7.6l26.5,7.6
		L169.9,1139.4z"/>
	<path id="path13702-9-3-1-3" inkscape:connector-curvature="0" class="st4" d="M870.5,1139.4l-7.6,7.6l26.5-7.6l-26.5-7.6
		L870.5,1139.4z"/>
	
		<path id="path12986-7-3-9-1" inkscape:connector-curvature="0" inkscape:export-xdpi="95.900002" inkscape:export-ydpi="95.900002" sodipodi:nodetypes="cc" class="st5" d="
		M889.4,1139.4"/>
	<path id="path13702-9-4-08-0" inkscape:connector-curvature="0" class="st4" d="M814.7,187.2l1.3,10.6l10.4-25.5L804,188.5
		L814.7,187.2z"/>
	
		<path id="path12986-7-8-1-7" inkscape:connector-curvature="0" inkscape:export-xdpi="95.900002" inkscape:export-ydpi="95.900002" sodipodi:nodetypes="cc" class="st5" d="
		M826.3,172.4"/>
	
		<circle id="circle22386-9-8" inkscape:export-xdpi="95.900002" inkscape:export-ydpi="95.900002" class="st3" cx="1851.4" cy="546.1" r="3.8">
	</circle>
	
		<circle id="circle22388-6-9" inkscape:export-xdpi="95.900002" inkscape:export-ydpi="95.900002" class="st3" cx="2229.4" cy="546.1" r="3.8">
	</circle>
	
		<circle id="circle22392-2-1" inkscape:export-xdpi="95.900002" inkscape:export-ydpi="95.900002" class="st3" cx="3174.3" cy="546.1" r="3.8">
	</circle>
	
		<circle id="circle22400-5-5" inkscape:export-xdpi="95.900002" inkscape:export-ydpi="95.900002" class="st3" cx="3552.2" cy="357.1" r="3.8">
	</circle>
	
		<circle id="circle22402-4-4" inkscape:export-xdpi="95.900002" inkscape:export-ydpi="95.900002" class="st3" cx="3552.2" cy="735.1" r="3.8">
	</circle>
	<path id="path13702-9-4-0-9-0" inkscape:connector-curvature="0" class="st4" d="M1325.9,832.1l-15.1,15.1l52.9-15.1l-52.9-15.1
		L1325.9,832.1z"/>
	
		<path id="path12986-7-8-5-4-9" inkscape:connector-curvature="0" inkscape:export-xdpi="95.900002" inkscape:export-ydpi="95.900002" sodipodi:nodetypes="cc" class="st4" d="
		M1363.7,832.1"/>
	<path id="path13702-9-4-0-6-6-3" inkscape:connector-curvature="0" class="st4" d="M148.1,54.9L163.3,70l-15.1-52.9L133,70
		L148.1,54.9z"/>
	
		<path id="path12986-7-8-5-2-9-2" inkscape:connector-curvature="0" inkscape:export-xdpi="95.900002" inkscape:export-ydpi="95.900002" sodipodi:nodetypes="cc" class="st5" d="
		M148.1,17.1"/>
	
		<rect id="rect12962-1-9" x="148.1" y="275.2" inkscape:export-xdpi="95.900002" inkscape:export-ydpi="95.900002" class="st0" width="745.8" height="556.8">
	</rect>
	
		<path id="path15061-5-3-2_17_" inkscape:connector-curvature="0" inkscape:export-xdpi="95.900002" inkscape:export-ydpi="95.900002" class="st7" d="
		M1196.7,810.3V297.9"/>
	
		<path id="path15061-5-3-2_19_" inkscape:connector-curvature="0" inkscape:export-xdpi="95.900002" inkscape:export-ydpi="95.900002" class="st7" d="
		M169.9,1139.4l700.5,0.1"/>
	<text transform="matrix(1 0 0 1 325.0484 1282.1641)" class="st2 st8 st9">example #1</text>
	<text transform="matrix(1 0 0 1 395.012 1111.6094)" class="st2 st10 st11">W = 200</text>
	<text transform="matrix(1 0 0 1 214.1223 519.5468)" class="st2 st10 st11">x</text>
	<text transform="matrix(0.583 0 0 0.583 247.9612 542.7167)" class="st2 st10 st11">1</text>
	<text transform="matrix(1 0 0 1 270.4421 519.5468)" class="st2 st10 st11"> = 100</text>
	<text transform="matrix(1 0 0 1 393.7171 232.6948)" class="st2 st10 st11">R</text>
	<text transform="matrix(0.583 0 0 0.583 437.8841 255.8647)" class="st2 st10 st11">1</text>
	<text transform="matrix(1 0 0 1 460.3655 232.6948)" class="st2 st10 st11"> = 130</text>
	<text transform="matrix(1 0 0 1 563.7088 702.328)" class="st2 st10 st11">y</text>
	<text transform="matrix(0.583 0 0 0.583 596.7659 725.4979)" class="st2 st10 st11">1</text>
	<text transform="matrix(1 0 0 1 619.2474 702.328)" class="st2 st10 st11"> = 75</text>
	<text transform="matrix(4.489659e-11 -1 1 4.489659e-11 1153.7949 672.6982)" class="st2 st10 st11">H = 150</text>
	<text transform="matrix(1 0 0 1 1367.2112 902.9235)" class="st2 st10 st11">X</text>
	<text transform="matrix(1 0 0 1 75.7289 902.924)" class="st2 st10 st11">O</text>
	<text transform="matrix(1 0 0 1 75.7289 70.0382)" class="st2 st10 st11">Y</text>
	<text transform="matrix(1 0 0 1 1836.8591 1282.1641)" class="st2 st8 st9">example #2</text>
	<text transform="matrix(1 0 0 1 3159.6941 1282.1641)" class="st2 st8 st9">example #3</text>
</g>
</svg>
