<?xml version="1.0" encoding="utf-8"?>
<!-- Generator: Adobe Illustrator 23.0.3, SVG Export Plug-In . SVG Version: 6.00 Build 0)  -->
<svg version="1.1"
	 id="SVGRoot" xmlns:cc="http://creativecommons.org/ns#" xmlns:dc="http://purl.org/dc/elements/1.1/" xmlns:inkscape="http://www.inkscape.org/namespaces/inkscape" xmlns:rdf="http://www.w3.org/1999/02/22-rdf-syntax-ns#" xmlns:sodipodi="http://sodipodi.sourceforge.net/DTD/sodipodi-0.dtd" xmlns:svg="http://www.w3.org/2000/svg"
	 xmlns="http://www.w3.org/2000/svg" xmlns:xlink="http://www.w3.org/1999/xlink" x="0px" y="0px" viewBox="0 0 810.9 362"
	 style="enable-background:new 0 0 810.9 362;" xml:space="preserve">
<style type="text/css">
	.st0{fill:none;stroke:#FFFFFF;stroke-width:1.581;}
	.st1{fill:none;stroke:#FFFFFF;stroke-width:1.5798;}
	.st2{fill:#939393;stroke:#FFFFFF;stroke-width:1.3943;}
	.st3{fill:none;stroke:#FFFFFF;stroke-width:1.3943;}
	.st4{fill:#FFFFFF;}
	.st5{fill:none;stroke:#FFFFFF;stroke-width:1.3965;stroke-dasharray:1.3965,1.3965;}
	.st6{fill:none;stroke:#FFFFFF;stroke-width:1.3943;stroke-dasharray:1.3943,1.3943;}
	.st7{fill:none;stroke:#FFFFFF;stroke-width:1.0809;stroke-linecap:round;stroke-linejoin:round;}
	.st8{fill:none;stroke:#FFFFFF;stroke-width:1.3795;stroke-dasharray:1.3795,2.7591;}
	.st9{fill:none;stroke:#FFFFFF;stroke-width:1.3795;stroke-dasharray:1.3795,1.3795;}
	.st10{font-family:'Roboto-Regular';}
	.st11{font-size:19.3084px;}
</style>
<rect y="0.5" width="920" height="360.9"/>
<sodipodi:namedview  bordercolor="#666666" borderopacity="1.0" id="base" inkscape:current-layer="layer1" inkscape:cx="460" inkscape:cy="181" inkscape:document-units="px" inkscape:pageopacity="0.0" inkscape:pageshadow="2" inkscape:window-height="713" inkscape:window-maximized="1" inkscape:window-width="1327" inkscape:window-x="39" inkscape:window-y="27" inkscape:zoom="0.55652174" pagecolor="#ffffff" showgrid="false">
	</sodipodi:namedview>
<g id="layer1" inkscape:groupmode="layer" inkscape:label="Layer 1">
	
		<path id="path2699" inkscape:connector-curvature="0" inkscape:export-xdpi="96" inkscape:export-ydpi="96" sodipodi:nodetypes="ccccccccc" class="st0" d="
		M14.6,244.2l-7.8-1.8L0.8,41L323.5,0.5l221.2,56.4l-5.2,201.8l-7.4,2l-209.5-75.8C218.1,203.9,108,227.2,14.6,244.2"/>
	<path id="path2703" inkscape:connector-curvature="0" inkscape:export-xdpi="96" inkscape:export-ydpi="96" class="st0" d="M0.8,41
		l6.9,3.5"/>
	
		<path id="path2707" inkscape:connector-curvature="0" inkscape:export-xdpi="96" inkscape:export-ydpi="96" sodipodi:nodetypes="cc" class="st0" d="
		M7.7,44.5l6.9,199.7"/>
	<path id="path2709" inkscape:connector-curvature="0" inkscape:export-xdpi="96" inkscape:export-ydpi="96" class="st0" d="
		M7.7,44.5L323.5,4.9l212.8,54.8l-4.1,201.1"/>
	<path id="path2711" inkscape:connector-curvature="0" inkscape:export-xdpi="96" inkscape:export-ydpi="96" class="st1" d="
		M536.3,59.7l8.5-2.7"/>
	<path id="path2713" inkscape:connector-curvature="0" inkscape:export-xdpi="96" inkscape:export-ydpi="96" class="st0" d="
		M323.5,4.9l-0.9,180"/>
	
		<path id="path2719" inkscape:connector-curvature="0" inkscape:export-xdpi="96" inkscape:export-ydpi="96" sodipodi:nodetypes="ccccc" class="st2" d="
		M12.1,70.4l5,167.8l14.7-2.8l-4.6-167L12.1,70.4z"/>
	<path id="path2731" inkscape:connector-curvature="0" inkscape:export-xdpi="96" inkscape:export-ydpi="96" class="st2" d="
		M11.7,66.8l-0.7-20.5l15.7-1.9l0.2,20.4L11.7,66.8z"/>
	
		<path id="path2733" inkscape:connector-curvature="0" inkscape:export-xdpi="96" inkscape:export-ydpi="96" sodipodi:nodetypes="ccccc" class="st2" d="
		M33,43.7l83.3-10.1l0.2,20.2L33.3,63.9L33,43.7z"/>
	<path id="path2735" inkscape:connector-curvature="0" inkscape:export-xdpi="96" inkscape:export-ydpi="96" class="st2" d="
		M33.1,68l5,165.7l81.9-14.9l-2.9-161L33.1,68z"/>
	
		<path id="path2737" inkscape:connector-curvature="0" inkscape:export-xdpi="96" inkscape:export-ydpi="96" sodipodi:nodetypes="ccccc" class="st2" d="
		M122.4,32.9l53.7-6.5l-0.3,18.4l-53.3,7.5L122.4,32.9z"/>
	
		<path id="path2739" inkscape:connector-curvature="0" inkscape:export-xdpi="96" inkscape:export-ydpi="96" sodipodi:nodetypes="ccccc" class="st2" d="
		M123.2,56.3l52.7-6.6l0.1,89.4l-51,7.7L123.2,56.3z"/>
	
		<path id="path2741" inkscape:connector-curvature="0" inkscape:export-xdpi="96" inkscape:export-ydpi="96" sodipodi:nodetypes="ccccc" class="st2" d="
		M181.2,25.8l49.9-6.3l-0.4,18.8L181.2,44L181.2,25.8z"/>
	
		<path id="path2743" inkscape:connector-curvature="0" inkscape:export-xdpi="96" inkscape:export-ydpi="96" sodipodi:nodetypes="ccccc" class="st2" d="
		M237.9,18.3l82.8-10.5l-0.4,19.4L237.6,37L237.9,18.3z"/>
	
		<path id="path2745" inkscape:connector-curvature="0" inkscape:export-xdpi="96" inkscape:export-ydpi="96" sodipodi:nodetypes="ccccc" class="st2" d="
		M181.4,48.7l49.7-5.8l0.4,88.4l-49.5,6.9L181.4,48.7z"/>
	
		<path id="path2749" inkscape:connector-curvature="0" inkscape:export-xdpi="96" inkscape:export-ydpi="96" sodipodi:nodetypes="ccccc" class="st2" d="
		M237.4,41.9v155.5l81.4-14.6l1.3-150.3L237.4,41.9z"/>
	<path id="path2751" inkscape:connector-curvature="0" inkscape:export-xdpi="96" inkscape:export-ydpi="96" class="st3" d="
		M125.8,217.6l-1.4-66.9l26.6-3.9l1.2,66.4L125.8,217.6z"/>
	<path id="path2753" inkscape:connector-curvature="0" inkscape:export-xdpi="96" inkscape:export-ydpi="96" class="st3" d="
		M154.2,145.9h1.1l20.7-3l1.3,66.4l-21.6,4.1L154.2,145.9z"/>
	<path id="path2755" inkscape:connector-curvature="0" inkscape:export-xdpi="96" inkscape:export-ydpi="96" class="st3" d="
		M181.8,142.1l24.9-3.5l0.6,65l-23.7,4.7L181.8,142.1z"/>
	<path id="path2757" inkscape:connector-curvature="0" inkscape:export-xdpi="96" inkscape:export-ydpi="96" class="st3" d="
		M209.5,137.5l22.5-3.4l0.6,64.8l-22.5,4.3L209.5,137.5z"/>
	
		<path id="path2759" inkscape:connector-curvature="0" inkscape:export-xdpi="96" inkscape:export-ydpi="96" sodipodi:nodetypes="ccccc" class="st3" d="
		M397.8,132.6l2.6-5l1.6,6.2l-2.4,4L397.8,132.6z"/>
	
		<path id="path2761" inkscape:connector-curvature="0" inkscape:export-xdpi="96" inkscape:export-ydpi="96" sodipodi:nodetypes="ccccc" class="st3" d="
		M460.1,152.6l2.6-5.2l1.8,6.3l-2.8,4.1L460.1,152.6z"/>
	
		<path id="path2763" inkscape:connector-curvature="0" inkscape:export-xdpi="96" inkscape:export-ydpi="96" sodipodi:nodetypes="cc" class="st3" d="
		M460.1,152.6l4.4,1.1"/>
	
		<path id="path2765" inkscape:connector-curvature="0" inkscape:export-xdpi="96" inkscape:export-ydpi="96" sodipodi:nodetypes="cc" class="st3" d="
		M397.8,132.6l4.2,1.2"/>
	<path id="path2767" inkscape:connector-curvature="0" inkscape:export-xdpi="96" inkscape:export-ydpi="96" class="st3" d="
		M385.7,207.7l0.9-72.2l28.1,9.3l-0.5,73.2"/>
	
		<path id="path2769" inkscape:connector-curvature="0" inkscape:export-xdpi="96" inkscape:export-ydpi="96" sodipodi:nodetypes="cccc" class="st3" d="
		M388.3,208.7l1.3-69.9l23,7.8l-1.1,70.4"/>
	
		<path id="path2771" inkscape:connector-curvature="0" inkscape:export-xdpi="96" inkscape:export-ydpi="96" sodipodi:nodetypes="ccccc" class="st3" d="
		M416.6,172.9v5.2l3.6,1.3v-5.1L416.6,172.9z"/>
	
		<path id="path2773" inkscape:connector-curvature="0" inkscape:export-xdpi="96" inkscape:export-ydpi="96" sodipodi:nodetypes="ccccc" class="st3" d="
		M416.6,180.3v5.2l3.6,1.3v-5.1L416.6,180.3z"/>
	
		<path id="path2775" inkscape:connector-curvature="0" inkscape:export-xdpi="96" inkscape:export-ydpi="96" sodipodi:nodetypes="ccccc" class="st3" d="
		M479.4,194.6v5.2l3.6,1.3v-5.1L479.4,194.6z"/>
	
		<path id="path2777" inkscape:connector-curvature="0" inkscape:export-xdpi="96" inkscape:export-ydpi="96" sodipodi:nodetypes="ccccc" class="st3" d="
		M479.4,201.9v5.2l3.6,1.3v-5.1L479.4,201.9z"/>
	<path id="path2781" inkscape:connector-curvature="0" inkscape:export-xdpi="96" inkscape:export-ydpi="96" class="st3" d="
		M447,229.9l0.9-72.2l28.1,9.3l-0.5,73.2"/>
	
		<path id="path2783" inkscape:connector-curvature="0" inkscape:export-xdpi="96" inkscape:export-ydpi="96" sodipodi:nodetypes="cccc" class="st3" d="
		M449.6,230.9l1.3-69.9l23,7.8l-1.1,70.4"/>
	<path id="path2785" inkscape:connector-curvature="0" inkscape:export-xdpi="96" inkscape:export-ydpi="96" class="st3" d="
		M401,142.7l-0.9,70.2"/>
	<path id="path2787" inkscape:connector-curvature="0" inkscape:export-xdpi="96" inkscape:export-ydpi="96" class="st3" d="
		M462.3,164.9l-1.1,70.2"/>
	<circle id="path2789" inkscape:export-xdpi="96" inkscape:export-ydpi="96" class="st0" cx="148.5" cy="184.1" r="2">
	</circle>
	
		<circle id="circle2793" inkscape:export-xdpi="96" inkscape:export-ydpi="96" inkscape:transform-center-x="2.0962075" inkscape:transform-center-y="0.19797837" class="st0" cx="158" cy="182.5" r="2">
	</circle>
	
		<circle id="circle2793-3" inkscape:export-xdpi="96" inkscape:export-ydpi="96" inkscape:transform-center-x="2.0962056" inkscape:transform-center-y="0.19797331" class="st0" cx="203.4" cy="175" r="2">
	</circle>
	
		<circle id="circle2810" inkscape:export-xdpi="96" inkscape:export-ydpi="96" inkscape:transform-center-x="2.0962032" inkscape:transform-center-y="0.19797853" class="st0" cx="213.2" cy="173.1" r="2">
	</circle>
	<circle id="path2833" inkscape:export-xdpi="96" inkscape:export-ydpi="96" class="st4" cx="299" cy="49.4" r="8.8">
	</circle>
	
		<path id="path2839" inkscape:connector-curvature="0" inkscape:export-xdpi="96" inkscape:export-ydpi="96" sodipodi:nodetypes="ccc" class="st5" d="
		M299.5,51.7L299.5,51.7L226,357.8"/>
	
		<path id="path2856" inkscape:connector-curvature="0" inkscape:export-xdpi="96" inkscape:export-ydpi="96" sodipodi:nodetypes="cc" class="st6" d="
		M299.5,51.7L417,342.9"/>
	
		<path id="path2858" inkscape:connector-curvature="0" inkscape:export-xdpi="96" inkscape:export-ydpi="96" sodipodi:nodetypes="ccc" class="st6" d="
		M299.5,51.7L299.5,51.7L479,257.2"/>
	
		<path id="path2860" inkscape:connector-curvature="0" inkscape:export-xdpi="96" inkscape:export-ydpi="96" sodipodi:nodetypes="cc" class="st6" d="
		M95.2,256.1L299.5,51.7"/>
	<g id="flowRoot4771" transform="translate(43.727239,-128.37176)" inkscape:export-xdpi="96" inkscape:export-ydpi="96">
	</g>
	<g id="flowRoot4771-3" transform="translate(116.33604,2.8588372)" inkscape:export-xdpi="96" inkscape:export-ydpi="96">
	</g>
	
		<ellipse id="path4803" inkscape:export-xdpi="96" inkscape:export-ydpi="96" class="st7" cx="286.6" cy="282.3" rx="202.9" ry="79.2">
	</ellipse>
	<g id="flowRoot4771-3-3" transform="translate(124.67004,140.8993)" inkscape:export-xdpi="96" inkscape:export-ydpi="96">
	</g>
	<path id="path4829" inkscape:connector-curvature="0" inkscape:export-xdpi="96" inkscape:export-ydpi="96" class="st8" d="
		M299.5,51.7L504.4,12"/>
	<path id="path4833" inkscape:connector-curvature="0" inkscape:export-xdpi="96" inkscape:export-ydpi="96" class="st9" d="
		M489.4,282.3l96.3-1.5"/>
	
		<path id="path4835" inkscape:connector-curvature="0" inkscape:export-xdpi="96" inkscape:export-ydpi="96" sodipodi:nodetypes="cc" class="st9" d="
		M405.8,173.3l173.9-31"/>
</g>
<text transform="matrix(1 0 0 1 511.3398 17.7827)" class="st4 st10 st11">PIR sensor mounted on the ceiling</text>
<text transform="matrix(1 0 0 1 585.7556 146.8211)" class="st4 st10 st11">PIR sensor view cone</text>
<text transform="matrix(1 0 0 1 590.0584 287.0917)" class="st4 st10 st11">Covered area</text>
</svg>
